<!-- https://benadam.me/thoughts/react-svg-sprites/ -->
<svg xmlns="http://www.w3.org/2000/svg" xmlns:xlink="http://www.w3.org/1999/xlink">
	<defs>
		<symbol viewBox="0 0 20 20" xmlns="http://www.w3.org/2000/svg" id="subtract-default">
			<path d="M10 2.5C14.125 2.5 17.5 5.875 17.5 10C17.5 14.125 14.125 17.5 10 17.5C5.875 17.5 2.5 14.125 2.5 10C2.5 5.875 5.875 2.5 10 2.5ZM10 1.25C5.1875 1.25 1.25 5.1875 1.25 10C1.25 14.8125 5.1875 18.75 10 18.75C14.8125 18.75 18.75 14.8125 18.75 10C18.75 5.1875 14.8125 1.25 10 1.25Z" fill="white" />
			<path d="M5 9.375H15V10.625H5V9.375Z" fill="white" />
		</symbol>
		<symbol viewBox="0 0 20 20" xmlns="http://www.w3.org/2000/svg" id="subtract-hover">
			<path d="M10 1.25C5.25 1.25 1.25 5.25 1.25 10C1.25 14.75 5.25 18.75 10 18.75C14.75 18.75 18.75 14.75 18.75 10C18.75 5.25 14.75 1.25 10 1.25ZM15 10.625H5V9.375H15V10.625Z" fill="white" />
		</symbol>
		<symbol viewBox="0 0 20 20" xmlns="http://www.w3.org/2000/svg" id="add-default">
			<path d="M10 2.5C14.125 2.5 17.5 5.875 17.5 10C17.5 14.125 14.125 17.5 10 17.5C5.875 17.5 2.5 14.125 2.5 10C2.5 5.875 5.875 2.5 10 2.5ZM10 1.25C5.1875 1.25 1.25 5.1875 1.25 10C1.25 14.8125 5.1875 18.75 10 18.75C14.8125 18.75 18.75 14.8125 18.75 10C18.75 5.1875 14.8125 1.25 10 1.25Z" fill="white" />
			<path d="M15 9.375H10.625V5H9.375V9.375H5V10.625H9.375V15H10.625V10.625H15V9.375Z" fill="white" />
		</symbol>
		<symbol viewBox="0 0 20 20" fill="none" xmlns="http://www.w3.org/2000/svg" id="add-hover">
			<path d="M10 1.25C7.68807 1.27805 5.47873 2.20893 3.84383 3.84383C2.20893 5.47873 1.27805 7.68807 1.25 10C1.27805 12.3119 2.20893 14.5213 3.84383 16.1562C5.47873 17.7911 7.68807 18.7219 10 18.75C12.3119 18.7219 14.5213 17.7911 16.1562 16.1562C17.7911 14.5213 18.7219 12.3119 18.75 10C18.7219 7.68807 17.7911 5.47873 16.1562 3.84383C14.5213 2.20893 12.3119 1.27805 10 1.25ZM15 10.625H10.625V15H9.375V10.625H5V9.375H9.375V5H10.625V9.375H15V10.625Z" fill="white" />
		</symbol>
		<symbol viewBox="0 0 20 20" fill="none" xmlns="http://www.w3.org/2000/svg" id="remove-default">
			<path d="M10 1.25C5.125 1.25 1.25 5.125 1.25 10C1.25 14.875 5.125 18.75 10 18.75C14.875 18.75 18.75 14.875 18.75 10C18.75 5.125 14.875 1.25 10 1.25ZM10 17.5C5.875 17.5 2.5 14.125 2.5 10C2.5 5.875 5.875 2.5 10 2.5C14.125 2.5 17.5 5.875 17.5 10C17.5 14.125 14.125 17.5 10 17.5Z" fill="#AD8A85" />
			<path d="M13.375 14.375L10 11L6.625 14.375L5.625 13.375L9 10L5.625 6.625L6.625 5.625L10 9L13.375 5.625L14.375 6.625L11 10L14.375 13.375L13.375 14.375Z" fill="#AD8A85" />
		</symbol>
		<symbol viewBox="0 0 20 20" fill="none" xmlns="http://www.w3.org/2000/svg" id="remove-hover">
			<path d="M10 1.25C5.125 1.25 1.25 5.125 1.25 10C1.25 14.875 5.125 18.75 10 18.75C14.875 18.75 18.75 14.875 18.75 10C18.75 5.125 14.875 1.25 10 1.25ZM10 17.5C5.875 17.5 2.5 14.125 2.5 10C2.5 5.875 5.875 2.5 10 2.5C14.125 2.5 17.5 5.875 17.5 10C17.5 14.125 14.125 17.5 10 17.5Z" fill="#260F08" />
			<path d="M13.375 14.375L10 11L6.625 14.375L5.625 13.375L9 10L5.625 6.625L6.625 5.625L10 9L13.375 5.625L14.375 6.625L11 10L14.375 13.375L13.375 14.375Z" fill="#260F08" />
		</symbol>
		<symbol viewBox="0 0 20 20" fill="none" xmlns="http://www.w3.org/2000/svg" id="cart-default">
			<path d="M6.25 18.75C6.94036 18.75 7.5 18.1904 7.5 17.5C7.5 16.8096 6.94036 16.25 6.25 16.25C5.55964 16.25 5 16.8096 5 17.5C5 18.1904 5.55964 18.75 6.25 18.75Z" fill="#260F08" />
			<path d="M15 18.75C15.6904 18.75 16.25 18.1904 16.25 17.5C16.25 16.8096 15.6904 16.25 15 16.25C14.3096 16.25 13.75 16.8096 13.75 17.5C13.75 18.1904 14.3096 18.75 15 18.75Z" fill="#260F08" />
			<path d="M3.1125 1.7525C3.08419 1.61087 3.0077 1.48341 2.89604 1.3918C2.78438 1.3002 2.64443 1.25009 2.5 1.25H0V2.5H1.9875L4.3875 14.4975C4.41581 14.6391 4.4923 14.7666 4.60396 14.8582C4.71562 14.9498 4.85557 14.9999 5 15H16.25V13.75H5.5125L5.0125 11.25H16.25C16.3922 11.25 16.5301 11.2015 16.641 11.1125C16.7519 11.0235 16.8291 10.8994 16.86 10.7606L18.2775 4.375H16.9981L15.7487 10H4.7625L3.1125 1.7525Z" fill="#260F08" />
			<path d="M11.25 3.75V1.25H10V3.75H7.5V5H10V7.5H11.25V5H13.75V3.75H11.25Z" fill="#260F08" />
		</symbol>
		<symbol viewBox="0 0 20 20" fill="none" xmlns="http://www.w3.org/2000/svg" id="cart-hover">
			<path d="M6.25 18.75C6.94036 18.75 7.5 18.1904 7.5 17.5C7.5 16.8096 6.94036 16.25 6.25 16.25C5.55964 16.25 5 16.8096 5 17.5C5 18.1904 5.55964 18.75 6.25 18.75Z" fill="#C73B0F" />
			<path d="M15 18.75C15.6904 18.75 16.25 18.1904 16.25 17.5C16.25 16.8096 15.6904 16.25 15 16.25C14.3096 16.25 13.75 16.8096 13.75 17.5C13.75 18.1904 14.3096 18.75 15 18.75Z" fill="#C73B0F" />
			<path d="M3.1125 1.7525C3.08419 1.61087 3.0077 1.48341 2.89604 1.3918C2.78438 1.3002 2.64443 1.25009 2.5 1.25H0V2.5H1.9875L4.3875 14.4975C4.41581 14.6391 4.4923 14.7666 4.60396 14.8582C4.71562 14.9498 4.85557 14.9999 5 15H16.25V13.75H5.5125L5.0125 11.25H16.25C16.3922 11.25 16.5301 11.2015 16.641 11.1125C16.7519 11.0235 16.8291 10.8994 16.86 10.7606L18.2775 4.375H16.9981L15.7487 10H4.7625L3.1125 1.7525Z" fill="#C73B0F" />
			<path d="M11.25 3.75V1.25H10V3.75H7.5V5H10V7.5H11.25V5H13.75V3.75H11.25Z" fill="#C73B0F" />
		</symbol>
		<symbol viewBox="0 0 21 20" fill="none" xmlns="http://www.w3.org/2000/svg" id="tree">
			<g clip-path="url(#clip0_28_288)">
				<path d="M8.00001 18.75H6.12501V17.5H8.00001V9.72873L5.80313 8.41061L6.44688 7.33936L8.64313 8.65686C8.82781 8.76837 8.98066 8.92557 9.08695 9.11331C9.19325 9.30105 9.2494 9.51299 9.25001 9.72873V17.5C9.25001 17.8315 9.11831 18.1494 8.88389 18.3839C8.64947 18.6183 8.33153 18.75 8.00001 18.75Z" fill="#1EA575" />
				<path d="M14.25 18.75H12.375C12.0435 18.75 11.7255 18.6183 11.4911 18.3839C11.2567 18.1495 11.125 17.8315 11.125 17.5V10.625H14.875C15.2242 10.6251 15.5696 10.552 15.8888 10.4104C16.208 10.2688 16.4941 10.062 16.7285 9.80313C16.9629 9.54429 17.1405 9.2392 17.2498 8.90754C17.3591 8.57588 17.3977 8.225 17.3631 7.8775C17.2793 7.24532 16.9656 6.66615 16.4819 6.25064C15.9981 5.83513 15.3782 5.6124 14.7406 5.625H13.7512L13.6406 5.13812C13.2825 3.56 11.7694 2.5 9.875 2.5C9.15969 2.50234 8.45988 2.70854 7.85758 3.09443C7.25528 3.48031 6.77547 4.0299 6.47437 4.67875L6.28125 5.09562L5.74188 5.02437C5.66186 5.01103 5.58107 5.00288 5.5 5C4.83696 5 4.20107 5.26339 3.73223 5.73223C3.26339 6.20107 3 6.83696 3 7.5C3 8.16304 3.26339 8.79893 3.73223 9.26777C4.20107 9.73661 4.83696 10 5.5 10V11.25C4.50544 11.25 3.55161 10.8549 2.84835 10.1517C2.14509 9.44839 1.75 8.49456 1.75 7.5C1.75 6.50544 2.14509 5.55161 2.84835 4.84835C3.55161 4.14509 4.50544 3.75 5.5 3.75L5.54938 3.75062C5.9892 2.99234 6.61997 2.36249 7.37889 1.92376C8.1378 1.48504 8.9984 1.25274 9.875 1.25C12.1744 1.25 14.0575 2.48625 14.72 4.375H14.7406C15.6886 4.36443 16.6072 4.70375 17.3206 5.32805C18.034 5.95234 18.4922 6.81777 18.6075 7.75875C18.6586 8.27963 18.6001 8.80543 18.4358 9.30235C18.2715 9.79926 18.005 10.2563 17.6534 10.644C17.3018 11.0317 16.873 11.3415 16.3945 11.5536C15.916 11.7656 15.3984 11.8751 14.875 11.875H12.375V17.5H14.25V18.75Z" fill="#1EA575" />
			</g>
			<defs>
				<clipPath id="clip0_28_288">
					<rect width="20" height="20" fill="white" transform="translate(0.5)" />
				</clipPath>
			</defs>
		</symbol>
		<symbol viewBox="0 0 48 48" fill="none" xmlns="http://www.w3.org/2000/svg" id="checkmark">
			<path d="M21 32.121L13.5 24.6195L15.6195 22.5L21 27.879L32.3775 16.5L34.5 18.6225L21 32.121Z" fill="#1EA575" />
			<path d="M24 3C19.8466 3 15.7865 4.23163 12.333 6.53914C8.8796 8.84665 6.18798 12.1264 4.59854 15.9636C3.0091 19.8009 2.59323 24.0233 3.40352 28.0969C4.21381 32.1705 6.21386 35.9123 9.15077 38.8492C12.0877 41.7861 15.8295 43.7862 19.9031 44.5965C23.9767 45.4068 28.1991 44.9909 32.0364 43.4015C35.8736 41.812 39.1534 39.1204 41.4609 35.667C43.7684 32.2135 45 28.1534 45 24C45 18.4305 42.7875 13.089 38.8493 9.15076C34.911 5.21249 29.5696 3 24 3ZM24 42C20.4399 42 16.9598 40.9443 13.9997 38.9665C11.0397 36.9886 8.73256 34.1774 7.37018 30.8883C6.0078 27.5992 5.65134 23.98 6.34587 20.4884C7.04041 16.9967 8.75474 13.7894 11.2721 11.2721C13.7894 8.75473 16.9967 7.0404 20.4884 6.34587C23.98 5.65133 27.5992 6.00779 30.8883 7.37017C34.1774 8.73255 36.9886 11.0397 38.9665 13.9997C40.9443 16.9598 42 20.4399 42 24C42 28.7739 40.1036 33.3523 36.7279 36.7279C33.3523 40.1036 28.7739 42 24 42Z" fill="#1EA575" />
		</symbol>
	</defs>
</svg>
